<svg width="574" height="337" viewBox="0 0 574 337" fill="none" xmlns="http://www.w3.org/2000/svg">
<path d="M303.157 149.03H186.906V199.218C198.459 192.483 211.698 189.113 226.615 189.113C243.709 189.113 257.729 194.416 268.677 205.009C279.636 215.593 285.115 230.27 285.115 249.03C285.115 259.629 283.125 271.488 279.157 284.613C275.183 297.728 268.745 310.9 259.844 324.134L217.594 300.676C222.886 293.207 227.391 285.504 231.115 277.572C234.849 269.629 236.719 261.442 236.719 253.009C236.719 244.108 234.849 237.853 231.115 234.238C227.391 230.629 222.521 228.822 216.511 228.822C210.969 228.822 205.604 230.509 200.427 233.884C195.261 237.249 190.75 240.853 186.906 244.697V333.884H138.531V288.03C130.584 292.603 122.578 296.093 114.511 298.509C106.453 300.916 97.1252 302.113 86.5315 302.113C73.2919 302.113 61.1982 299.712 50.2398 294.905C39.2919 290.087 30.5732 282.801 24.0732 273.051C17.5732 263.301 14.3232 251.207 14.3232 236.759C14.3232 223.525 17.5732 211.978 24.0732 202.113C30.5732 192.238 39.5992 184.593 51.1565 179.176C62.7086 173.759 76.0732 171.051 91.2398 171.051C97.9742 171.051 104.771 171.358 111.636 171.968C118.495 172.567 123.849 173.343 127.698 174.301L124.094 214.384C116.386 212.457 107.834 211.488 98.4482 211.488C87.1409 211.488 78.3544 213.718 72.094 218.176C65.8284 222.624 62.6982 228.817 62.6982 236.759C62.6982 246.384 65.7034 253.004 71.719 256.613C77.745 260.228 84.2502 262.03 91.2398 262.03C101.334 262.03 110.292 259.749 118.115 255.176C125.948 250.608 132.75 245.317 138.531 239.301V149.03H0.968994V109.322H303.157V149.03Z" fill="#004AAD"/>
<path d="M347.209 280.093C337.584 280.093 329.157 277.567 321.938 272.509C314.714 267.457 311.104 259.754 311.104 249.405C311.104 240.978 313.75 234.176 319.042 229.009C324.334 223.832 331.797 221.238 341.438 221.238C346.49 221.238 351.901 222.207 357.667 224.134C363.443 226.051 369.344 229.176 375.375 233.509C385.235 228.942 393.235 222.087 399.375 212.947C405.511 203.796 408.584 192.478 408.584 178.988C408.584 166.238 405.813 156.738 400.271 150.488C394.74 144.228 387.761 141.093 379.334 141.093C374.526 141.093 370.677 142.238 367.792 144.53C364.901 146.811 363.459 150.113 363.459 154.447C363.459 159.02 365.802 163.233 370.5 167.093C375.193 170.942 384.636 173.707 398.834 175.384L388.729 207.884C364.422 205.718 346.547 199.582 335.104 189.468C323.672 179.358 317.959 167.322 317.959 153.363C317.959 139.645 323.068 128.27 333.292 119.238C343.526 110.212 358.396 105.697 377.896 105.697C391.615 105.697 404.49 108.353 416.521 113.655C428.563 118.947 438.25 127.129 445.584 138.197C452.927 149.27 456.604 163.353 456.604 180.447C456.604 197.53 452.63 213.296 444.688 227.738C436.74 242.186 425.672 253.858 411.479 262.759C419.657 270.218 427.594 278.28 435.292 286.947C443 295.613 450.104 304.041 456.604 312.218L420.854 336.78C411.229 324.254 402.198 313.176 393.771 303.551C385.354 293.926 377.532 285.504 370.313 278.28C362.854 279.488 355.151 280.093 347.209 280.093ZM540 149.03V333.884H491.625V149.03H464.542V109.322H573.938V149.03H540Z" fill="#004AAD"/>
<mask id="mask0_1_105" style="mask-type:luminance" maskUnits="userSpaceOnUse" x="86" y="0" width="94" height="140">
<path d="M86.2222 0H179.333V139.667H86.2222V0Z" fill="white"/>
</mask>
<g mask="url(#mask0_1_105)">
<mask id="mask1_1_105" style="mask-type:luminance" maskUnits="userSpaceOnUse" x="86" y="-15" width="98" height="164">
<path d="M86.6956 0.609068L142.188 -14.768L183.288 133.567L127.795 148.941L86.6956 0.609068Z" fill="white"/>
</mask>
<g mask="url(#mask1_1_105)">
<mask id="mask2_1_105" style="mask-type:luminance" maskUnits="userSpaceOnUse" x="86" y="-15" width="98" height="164">
<path d="M142.229 -14.7796L86.736 0.597517L127.839 148.93L183.331 133.556L142.229 -14.7796Z" fill="white"/>
</mask>
<g mask="url(#mask2_1_105)">
<path d="M146.997 107.602C132.518 31.3661 86.9265 0.600403 86.9265 0.600403C135.702 18.6707 157.6 78.2709 164.71 102.79C170.899 104.409 176.1 109.106 177.93 115.713C180.667 125.589 174.882 135.807 165.007 138.544C155.132 141.28 144.91 135.495 142.177 125.62C140.326 118.949 142.434 112.171 146.997 107.602Z" fill="#004AAD"/>
</g>
</g>
</g>
<path d="M317.539 34.6558H306.059C304.237 30.4215 301.414 26.9892 297.58 24.3642C293.747 21.7392 289.862 20.4267 285.934 20.4267C282.002 20.4267 278.627 21.0308 275.809 22.2392C272.976 23.5621 270.549 25.2756 268.539 27.385C263.997 32.1246 261.726 37.6715 261.726 44.0308C261.726 50.4788 263.997 56.0204 268.539 60.6558C272.981 65.4058 278.424 67.7808 284.872 67.7808C289.106 67.7808 293.039 66.6715 296.664 64.4475C300.205 62.2288 302.981 59.2548 304.997 55.5308H316.934C313.211 66.2131 306.002 73.3642 295.309 76.9892C291.987 78.2079 288.211 78.8225 283.976 78.8225C279.737 78.8225 275.549 77.8642 271.414 75.9475C267.273 74.1298 263.695 71.609 260.684 68.385C254.127 61.5256 250.851 53.4058 250.851 44.0308C250.851 34.5465 254.127 26.4267 260.684 19.6767C267.336 12.8173 275.398 9.38501 284.872 9.38501C292.539 9.38501 299.445 11.7548 305.601 16.4892C311.445 21.0308 315.424 27.0881 317.539 34.6558Z" fill="#00BF63"/>
<path d="M387.109 44.0308C387.109 37.5725 384.89 31.9267 380.463 27.0933C375.921 22.2496 370.322 19.8225 363.671 19.8225C357.015 19.8225 351.473 22.2496 347.046 27.0933C342.504 31.9267 340.234 37.5725 340.234 44.0308C340.234 50.4788 342.504 56.1246 347.046 60.9683C351.473 65.8017 357.015 68.2183 363.671 68.2183C370.322 68.2183 375.921 65.8017 380.463 60.9683C384.89 56.1246 387.109 50.4788 387.109 44.0308ZM397.713 77.3017H387.109V65.9683C386.51 66.7756 385.906 67.5256 385.296 68.2183C378.947 75.2913 371.182 78.8225 362.004 78.8225C352.838 78.8225 345.129 75.2913 338.879 68.2183C332.723 61.3746 329.65 53.3121 329.65 44.0308C329.65 34.7548 332.723 26.6871 338.879 19.8225C345.129 12.7704 352.838 9.23917 362.004 9.23917C371.182 9.23917 378.947 12.7704 385.296 19.8225C385.906 20.5308 386.51 21.2913 387.109 22.0933V10.76H397.713V77.3017Z" fill="#00BF63"/>
<path d="M454.569 24.51C452.152 22.3017 449.532 21.1975 446.715 21.1975C443.991 21.1975 441.673 21.9475 439.756 23.4475C437.741 25.0725 436.074 26.9892 434.756 29.1975C432.241 33.6454 430.986 38.5881 430.986 44.0308V77.3017H420.381V10.76H430.986V24.51L431.423 21.8017C434.965 13.5256 440.465 9.38501 447.923 9.38501C450.241 9.38501 452.454 9.84334 454.569 10.76V24.51Z" fill="#00BF63"/>
<path d="M532.461 42.51V48.1142H473.94C474.94 53.8642 477.711 58.5517 482.252 62.1767C486.888 65.9163 492.028 67.7808 497.669 67.7808C501.502 67.7808 505.179 66.8746 508.711 65.0517C512.138 63.3433 515.013 60.9215 517.336 57.7808H529.44C526.617 64.1454 522.383 69.135 516.731 72.76C510.981 76.4996 505.179 78.3642 499.336 78.3642C493.388 78.3642 488.346 77.4527 484.211 75.635C479.971 73.8173 476.294 71.3433 473.169 68.2183C466.32 61.5673 462.898 53.4006 462.898 43.7183C462.898 34.1506 466.32 25.9371 473.169 19.0725C479.929 12.3121 488.096 8.92667 497.669 8.92667C506.945 8.92667 515.065 12.2079 522.023 18.76C528.981 25.4267 532.461 33.3433 532.461 42.51ZM521.273 39.0308C520.065 33.3954 517.237 28.7079 512.794 24.9683C508.362 21.3433 503.32 19.5308 497.669 19.5308C489.002 19.5308 482.195 23.4163 477.252 31.1767C475.737 33.5933 474.679 36.2131 474.086 39.0308H521.273Z" fill="#00BF63"/>
<path d="M558.64 78.8225C556.317 78.8225 554.296 77.9579 552.577 76.2392C550.754 74.6298 549.848 72.6663 549.848 70.3434C549.848 68.0256 550.707 66.01 552.431 64.3017C554.14 62.5829 556.207 61.7184 558.64 61.7184C561.056 61.7184 563.166 62.5256 564.973 64.135C566.692 65.859 567.556 67.8798 567.556 70.1975C567.556 72.6142 566.645 74.6298 564.827 76.2392C563.02 77.9579 560.957 78.8225 558.64 78.8225Z" fill="#00BF63"/>
</svg>
